# xmcd
#
# Track frame offsets:
# 150
# 17872
# 34135
# 48528
# 68141
# 84509
# 97468
# 113064
# 134656
# 155321
# 176476
# 191604
# 207546
#
# Disc length: 3045 seconds
#
#
# Revision: 1
# Processed by: cddbd v1.5.2PL0 Copyright (c) Steve Scherf et al.
# Submitted via: HACP 1.12
#
DISCID=bd0be30d
DTITLE=Sing Um Dein Leben - Sing Um Dein Leben
DYEAR=2012
DGENRE=Rap
TTITLE0=Dies Muss Es Werden
TTITLE1=Aim High
TTITLE2=Lass Mich In Dein Handy Rein
TTITLE3=Stranded
TTITLE4=Das Letzte Mal (feat. Kool Savas)
TTITLE5=Auszubildende Der Liebe
TTITLE6=One
TTITLE7=Du Bist Da Für Mich
TTITLE8=Couldn't It Be Love (feat. Rea Garvey)
TTITLE9=Engel
TTITLE10=Change Your Direction
TTITLE11=Ich Wende Mein Gesicht
TTITLE12=Wenn Der Beat Erklingt
EXTD=
EXTT0=
EXTT1=
EXTT2=
EXTT3=
EXTT4=
EXTT5=
EXTT6=
EXTT7=
EXTT8=
EXTT9=
EXTT10=
EXTT11=
EXTT12=
PLAYORDER=
